inDegrees=no
num_controls=7
num_derivatives=13
num_iterations=18
num_multipliers=7
num_parameters=0
num_slacks=7
num_states=26
objective=0.464495
objective_accelerations=0.000000
objective_balance=0.012087
objective_effort=0.015415
objective_height=0.436949
objective_ligament=0.000044
solver_duration=255.534953
status=Solve_Succeeded
success=true
DataType=double
version=3
OpenSimVersion=4.5
endheader
time	/jointset/ground_pelvis/pelvis_tilt/value	/jointset/ground_pelvis/pelvis_tx/value	/jointset/ground_pelvis/pelvis_ty/value	/jointset/hip_l/hip_flexion_l/value	/jointset/hip_l/hip_adduction_l/value	/jointset/hip_l/hip_rotation_l/value	/jointset/back/lumbar_extension/value	/jointset/patellofemoral_l/patellar_flexion_l/value	/jointset/knee_l/knee_flexion_l/value	/jointset/knee_l/knee_adduction_l/value	/jointset/knee_l/knee_rotation_l/value	/jointset/ankle_l/ankle_angle_l/value	/jointset/subtalar_l/subtalar_angle_l/value	/jointset/ground_pelvis/pelvis_tilt/speed	/jointset/ground_pelvis/pelvis_tx/speed	/jointset/ground_pelvis/pelvis_ty/speed	/jointset/hip_l/hip_flexion_l/speed	/jointset/hip_l/hip_adduction_l/speed	/jointset/hip_l/hip_rotation_l/speed	/jointset/back/lumbar_extension/speed	/jointset/patellofemoral_l/patellar_flexion_l/speed	/jointset/knee_l/knee_flexion_l/speed	/jointset/knee_l/knee_adduction_l/speed	/jointset/knee_l/knee_rotation_l/speed	/jointset/ankle_l/ankle_angle_l/speed	/jointset/subtalar_l/subtalar_angle_l/speed	/forceset/tau_hip_flexion_l	/forceset/tau_hip_adduction_l	/forceset/tau_hip_rotation_l	/forceset/tau_knee_flexion_l	/forceset/tau_ankle_angle_l	/forceset/tau_subtalar_angle_l	/forceset/tau_lumbar_extension	lambda_cid13_p0	lambda_cid13_p1	lambda_cid13_p2	lambda_cid13_p3	lambda_cid13_p4	lambda_cid13_p5	lambda_cid14_p0	/jointset/ground_pelvis/pelvis_tilt/accel	/jointset/ground_pelvis/pelvis_tx/accel	/jointset/ground_pelvis/pelvis_ty/accel	/jointset/hip_l/hip_flexion_l/accel	/jointset/hip_l/hip_adduction_l/accel	/jointset/hip_l/hip_rotation_l/accel	/jointset/back/lumbar_extension/accel	/jointset/patellofemoral_l/patellar_flexion_l/accel	/jointset/knee_l/knee_flexion_l/accel	/jointset/knee_l/knee_adduction_l/accel	/jointset/knee_l/knee_rotation_l/accel	/jointset/ankle_l/ankle_angle_l/accel	/jointset/subtalar_l/subtalar_angle_l/accel	gamma_cid13_p0	gamma_cid13_p1	gamma_cid13_p2	gamma_cid13_p3	gamma_cid13_p4	gamma_cid13_p5	gamma_cid14_p0
1.5	0.02374733820023013	0.02571225432187885	0.9145559819868778	0.2485799361519803	-0.1421556790303308	-0.08332070221026783	-0.2959464815091615	0.0486446092724965	0.04864460927249181	0.07368625410010564	-0.02649699406985426	-0.0359172180612159	0.1061420940958792	-0.3869859211253585	0.006967216904654307	-0.03274507033011113	0.4239727273346163	0.002099446415778359	-0.06799447179643894	0.5690906395403132	0.00419668423974413	0.004196684239744786	-1.37917987697594e-05	0.07163119769933045	-0.02622155030962677	-0.005129306034232175	0.01853647772954059	0.06261800730408547	0.01444365639581118	-0.1813487022360896	0.2144248721065423	-0.04818266572864761	0.05829983409647516	23.84907705975296	22.49359293820406	-10.54915620508391	1.876141366611311	-629.421857040546	-13.94766418377267	-34.74586418375201	-0.3740233055223462	0.0004505211261468825	-0.05068279984133062	0.4733913959727459	-0.04854319644861568	-0.04869140589143749	0.7351074616007461	0.1353313348097908	0.1353313348097908	-0.08488667600884624	0.07988779002886007	0.0393488816389042	-0.03597928371229173	3.804190943788933e-09	6.896414749420384e-09	-4.599971270261677e-10	-4.243827020372934e-09	-9.816769377366314e-09	2.980114494845043e-10	1.260437832740577e-09
1.51	0.01985938971895685	0.02578189266142407	0.9142260453041106	0.2528426238831724	-0.1421371497053608	-0.0840032048741772	-0.2902198722334536	0.0486931628650745	0.04869316286506907	0.073681778299457	-0.02577657976941897	-0.03617755358380217	0.1060889385188181	-0.3905691284858445	0.006954282774622608	-0.03324099357799303	0.4285384712822685	0.001605777002186933	-0.0685049474947064	0.5761564068287592	0.005522814387374479	0.005522814387375118	-0.0008813775206483543	0.07245213183726788	-0.02584531566110791	-0.005502381770907974	0.01861247852483909	0.06251065367366014	0.01437198711551135	-0.1816087279394776	0.2149470606598504	-0.04824417764703556	0.05742285344505042	24.02095817286254	22.48074703794851	-10.53629646424685	1.850982501369324	-629.263952835758	-13.96276014929133	-34.75477820274332	-0.3452725213469483	-0.003091447450766813	-0.0488581263610023	0.4442136053997465	-0.04987619779604183	-0.05205825405723397	0.6810900477695885	0.1325706101609262	0.1325706101609782	-0.08769471213547186	0.08326705747544697	0.03679759051207505	-0.03805869700710789	3.83339664038473e-09	6.927957643587714e-09	-5.216909563706552e-10	-4.193031838161744e-09	-9.726420283333353e-09	3.548622462699493e-10	1.289674342709856e-09
1.52	0.01593664855007892	0.02585121644619345	0.9138911871810436	0.2571501785960952	-0.142123576551336	-0.08469077881551844	-0.2844248495477983	0.04875524111021061	0.04875524111020507	0.07366862660323162	-0.0250479419612518	-0.03643411939309144	0.1060320347887184	-0.3939444586477629	0.006904305949487102	-0.03372935839006769	0.432946123679456	0.001108212229337639	-0.0690087272834824	0.5827733215292867	0.006901614751850628	0.006901614751851251	-0.001748970916856257	0.0732758992471703	-0.0254676076504418	-0.00587893664205956	0.018688479320154	0.0624033000432311	0.01430031783515363	-0.1818687536428647	0.2154692492131576	-0.04830568956542709	0.05654587279363946	24.19359197928573	22.46728321015272	-10.52278292873445	1.82082855081152	-629.0987387352469	-13.97933042638838	-34.76424074071346	-0.3324478658088483	-0.006958017894451165	-0.04917111267985819	0.4417730858796043	-0.0493222683002262	-0.04735222399308442	0.6453369440174436	0.145865378178808	0.145865378178808	-0.08488821087478123	0.08045444442177839	0.03964355406848678	-0.03667511060744654	3.856580037197248e-09	6.944652143154164e-09	-5.842071269915031e-10	-4.12771751494555e-09	-9.609223783364789e-09	4.142644656571799e-10	1.318456022918874e-09
1.53	0.01198120589390237	0.02591985906882585	0.9135514859428746	0.2615009977197841	-0.1421150000842327	-0.08538336202563193	-0.2785659187949941	0.04883136332310781	0.04883136332310099	0.07364679532029729	-0.02431104837155196	-0.03668689907964844	0.1059713471400512	-0.3971066091614485	0.006818408024493981	-0.03420920398235602	0.4371872625348169	0.0006063577144634684	-0.06950699067945972	0.5889343854147567	0.008330503152111245	0.008330503152111857	-0.002617492546106317	0.07410330236385049	-0.02508795862834571	-0.006259205699873166	0.01878196135915644	0.06228686566952778	0.01422957590942317	-0.1821749007032683	0.2160413780829966	-0.04837333523169191	0.05564098056416458	24.38084888111813	22.45568963805038	-10.51158563162751	1.785912299465964	-628.9474485170291	-13.99545880350905	-34.77426798452665	-0.3024791609395408	-0.01027806298419257	-0.0471403703193092	0.4107183972740411	-0.05072668998363451	-0.05092439374455578	0.5897245694835775	0.142551596924645	0.1425515969246903	-0.08786400353813432	0.0839562270554063	0.0371822853121298	-0.0387957996830031	3.873364740490035e-09	6.945570223457182e-09	-6.475970352184838e-10	-4.046976604411539e-09	-9.463501914589649e-09	4.763775715588077e-10	1.346754446507614e-09
